name rise42.5664peak47.7979fall81.9185.mot
datacolumns 19
datarows 14
range 12.08994900000000 12.11161500000000
endheader
time	ground_force1_vx	ground_force1_vy	ground_force1_vz	ground_force1_px	ground_force1_py	ground_force1_pz	ground_force2_vx	ground_force2_vy	ground_force2_vz	ground_force2_px	ground_force2_py	ground_force2_pz	ground_torque1_x	ground_torque1_y	ground_torque1_z	ground_torque2_x	ground_torque2_y	ground_torque2_z	
12.08994900000000	-32.77509800000000	799.34280100000001	58.78812500000000	0.09496000000000	0.00000000000000	0.10869900000000	-8.66698000000000	53.17661100000000	6.62493000000000	0.31975900000000	0.00000000000000	-0.08026200000000	0.00000000000000	17.84690700000000	0.00000000000000	0.00000000000000	3.07923400000000	0.00000000000000	
12.09162200000000	-33.32788400000000	797.31460300000003	58.69819000000000	0.09418600000000	0.00000000000000	0.10862400000000	-9.18192500000000	59.86143000000000	7.24318300000000	0.32368900000000	0.00000000000000	-0.08041000000000	0.00000000000000	17.79272300000000	0.00000000000000	0.00000000000000	3.44468100000000	0.00000000000000	
12.09328300000000	-33.90200900000000	795.17006800000001	58.58221300000000	0.09341700000000	0.00000000000000	0.10854400000000	-9.54801800000000	66.42562700000001	7.79518000000000	0.32729400000000	0.00000000000000	-0.08055200000000	0.00000000000000	17.74051000000000	0.00000000000000	0.00000000000000	3.79190200000000	0.00000000000000	
12.09495200000000	-34.49749700000000	792.90827100000001	58.43978900000000	0.09265300000000	0.00000000000000	0.10846000000000	-9.76089300000000	72.82432300000001	8.27527900000000	0.33061300000000	0.00000000000000	-0.08069100000000	0.00000000000000	17.69038200000000	0.00000000000000	0.00000000000000	4.11684300000000	0.00000000000000	
12.09661800000000	-35.11428900000000	790.52824599999997	58.27056100000000	0.09189300000000	0.00000000000000	0.10837200000000	-9.82296300000000	79.03693199999999	8.68184500000000	0.33367900000000	0.00000000000000	-0.08082800000000	0.00000000000000	17.64244100000000	0.00000000000000	0.00000000000000	4.41716600000000	0.00000000000000	
12.09828200000000	-35.75224400000000	788.02898800000003	58.07422200000000	0.09113900000000	0.00000000000000	0.10827800000000	-9.74231800000000	85.06488000000000	9.01671800000000	0.33652100000000	0.00000000000000	-0.08096400000000	0.00000000000000	17.59677300000000	0.00000000000000	0.00000000000000	4.69211100000000	0.00000000000000	
12.09995300000000	-36.41113400000000	785.40944900000000	57.85051800000000	0.09039000000000	0.00000000000000	0.10818100000000	-9.53134100000000	90.92790700000000	9.28449900000000	0.33916000000000	0.00000000000000	-0.08109900000000	0.00000000000000	17.55344700000000	0.00000000000000	0.00000000000000	4.94224800000000	0.00000000000000	
12.10162100000000	-37.09064300000000	782.66853300000002	57.59924500000000	0.08964600000000	0.00000000000000	0.10807800000000	-9.20521900000000	96.65950300000000	9.49172500000000	0.34161700000000	0.00000000000000	-0.08123500000000	0.00000000000000	17.51251800000000	0.00000000000000	0.00000000000000	5.16916500000000	0.00000000000000	
12.10328800000000	-37.79036700000000	779.80510500000003	57.32025500000000	0.08890700000000	0.00000000000000	0.10797200000000	-8.78047000000000	102.30202199999999	9.64602900000000	0.34390800000000	0.00000000000000	-0.08137100000000	0.00000000000000	17.47402000000000	0.00000000000000	0.00000000000000	5.37512400000000	0.00000000000000	
12.10495800000000	-38.50980900000000	776.81798100000003	57.01345200000000	0.08817300000000	0.00000000000000	0.10786100000000	-8.27362700000000	107.90190900000000	9.75536400000000	0.34604700000000	0.00000000000000	-0.08150900000000	0.00000000000000	17.43797200000000	0.00000000000000	0.00000000000000	5.56272400000000	0.00000000000000	
12.10661800000000	-39.24838300000000	773.70593599999995	56.67879400000000	0.08744500000000	0.00000000000000	0.10774600000000	-7.70013800000000	113.50541600000000	9.82732500000000	0.34804600000000	0.00000000000000	-0.08164800000000	0.00000000000000	17.40437500000000	0.00000000000000	0.00000000000000	5.73459000000000	0.00000000000000	
12.10829000000000	-40.00540600000000	770.46770000000004	56.31629600000000	0.08672100000000	0.00000000000000	0.10762700000000	-7.07353700000000	119.15505600000000	9.86862100000000	0.34991700000000	0.00000000000000	-0.08179000000000	0.00000000000000	17.37321000000000	0.00000000000000	0.00000000000000	5.89312200000000	0.00000000000000	
12.10995100000000	-40.78010600000000	767.10196699999995	55.92602400000000	0.08600200000000	0.00000000000000	0.10750300000000	-6.40490900000000	124.88694000000000	9.88470300000000	0.35166800000000	0.00000000000000	-0.08193400000000	0.00000000000000	17.34444200000000	0.00000000000000	0.00000000000000	6.04030100000000	0.00000000000000	
12.11161500000000	-41.57161500000000	763.60739200000000	55.50810500000000	0.08528800000000	0.00000000000000	0.10737600000000	-5.70262500000000	130.72903800000000	9.87955400000000	0.35330600000000	0.00000000000000	-0.08208000000000	0.00000000000000	17.31801300000000	0.00000000000000	0.00000000000000	6.17756200000000	0.00000000000000	
